<?xml version="1.0" encoding="UTF-8"?>
<svg xmlns="http://www.w3.org/2000/svg" id="Layer_1" data-name="Layer 1" viewBox="0 0 24 24">
  <path d="m18.499,12c-2.134,0-3.947,1.442-4.415,3.534l-1.036,5.273c-.058.293.019.597.209.828s.474.365.772.365h2.245c.126,1.123,1.068,2,2.225,2s2.099-.877,2.225-2h2.241c.299,0,.583-.134.773-.366.19-.231.266-.536.208-.829l-1.117-5.599c-.565-1.888-2.346-3.206-4.331-3.206Zm-3.253,8l.796-4.055c.256-1.145,1.267-1.945,2.457-1.945,1.108,0,2.102.732,2.392,1.688l.856,4.312h-6.502ZM21,2h-3V0h-2v2h-8V0h-2v2h-3c-1.654,0-3,1.346-3,3v19h14.03c-.9,0-1.745-.399-2.317-1.094-.224-.272-.379-.583-.494-.906H2v-12h20v1.049c.801.512,1.485,1.189,2,1.997V5c0-1.654-1.346-3-3-3ZM2,8v-3c0-.551.449-1,1-1h18c.551,0,1,.449,1,1v3H2Z"/>
</svg>
